<?xml version="1.0" encoding="UTF-8"?>
<svg xmlns="http://www.w3.org/2000/svg" xmlns:xlink="http://www.w3.org/1999/xlink" width="65px" height="65px" viewBox="0 0 65 65" version="1.1">
<g id="surface1">
<path style=" stroke:none;fill-rule:nonzero;fill:rgb(0%,0%,0%);fill-opacity:1;" d="M 29.804688 2.277344 C 22.515625 2.976562 15.847656 6.164062 10.835938 11.328125 C 9.242188 12.96875 8.429688 13.972656 7.167969 15.863281 C 5.503906 18.359375 4.09375 21.4375 3.304688 24.34375 C 2.492188 27.296875 2.226562 29.304688 2.226562 32.5 C 2.226562 35.695312 2.492188 37.703125 3.304688 40.65625 C 4.09375 43.5625 5.503906 46.640625 7.167969 49.136719 C 8.421875 51.011719 9.242188 52.023438 10.773438 53.617188 C 13.203125 56.117188 16.050781 58.195312 19.113281 59.691406 C 22.347656 61.273438 25.089844 62.085938 28.976562 62.636719 C 30.273438 62.820312 34.753906 62.820312 36.023438 62.636719 C 38.726562 62.234375 41.074219 61.675781 43.070312 60.9375 C 45.957031 59.875 49.5625 57.761719 51.945312 55.757812 C 53.199219 54.695312 55.105469 52.757812 56.117188 51.515625 C 57.9375 49.28125 59.941406 45.75 60.9375 43.070312 C 61.675781 41.074219 62.28125 38.589844 62.636719 36.023438 C 62.8125 34.738281 62.8125 30.261719 62.636719 28.976562 C 62.085938 25.089844 61.273438 22.347656 59.691406 19.113281 C 58.195312 16.050781 56.117188 13.203125 53.617188 10.773438 C 52.023438 9.242188 51.011719 8.421875 49.136719 7.167969 C 45.425781 4.691406 41.308594 3.152344 36.457031 2.429688 C 35.136719 2.234375 31.203125 2.140625 29.804688 2.277344 Z M 34.882812 5.527344 C 40.085938 5.984375 45.015625 7.925781 49.289062 11.246094 C 50.472656 12.164062 52.835938 14.527344 53.753906 15.710938 C 55.410156 17.851562 56.722656 20.152344 57.679688 22.539062 C 61.082031 31.132812 59.875 40.777344 54.445312 48.363281 L 53.929688 49.097656 L 53.398438 48.148438 C 51.398438 44.589844 48.492188 41.492188 45.121094 39.378906 C 43.980469 38.664062 42.167969 37.777344 40.808594 37.269531 L 39.859375 36.910156 L 40.59375 36.417969 C 41.671875 35.703125 43.410156 33.925781 44.203125 32.710938 C 47.9375 27.046875 47.199219 19.773438 42.425781 14.988281 C 40.222656 12.796875 37.578125 11.449219 34.535156 11.011719 C 30.117188 10.351562 25.773438 11.800781 22.574219 14.988281 C 17.039062 20.523438 17.039062 29.320312 22.574219 34.839844 C 23.175781 35.445312 23.996094 36.152344 24.40625 36.417969 L 25.140625 36.910156 L 24.191406 37.269531 C 22.832031 37.777344 21.019531 38.664062 19.878906 39.378906 C 16.507812 41.492188 13.601562 44.589844 11.601562 48.148438 L 11.070312 49.097656 L 10.554688 48.363281 C 5.6875 41.566406 4.183594 33.007812 6.445312 25.117188 C 7.761719 20.5625 10.023438 16.726562 13.378906 13.378906 C 15.484375 11.269531 17.472656 9.796875 19.976562 8.503906 C 24.625 6.089844 29.714844 5.078125 34.882812 5.527344 Z M 35.082031 14.398438 C 38.421875 15.261719 41.035156 17.488281 42.433594 20.660156 C 43.085938 22.121094 43.265625 23.046875 43.265625 24.914062 C 43.265625 26.3125 43.222656 26.742188 43.03125 27.496094 C 41.953125 31.484375 39.070312 34.375 35.082031 35.445312 C 34.328125 35.644531 33.898438 35.679688 32.5 35.679688 C 31.101562 35.679688 30.671875 35.644531 29.917969 35.445312 C 25.929688 34.375 23.046875 31.484375 21.96875 27.496094 C 21.625 26.199219 21.625 23.636719 21.96875 22.339844 C 22.742188 19.492188 24.527344 17.070312 26.917969 15.640625 C 28.050781 14.960938 29.789062 14.34375 31.148438 14.148438 C 31.960938 14.023438 34.199219 14.167969 35.082031 14.398438 Z M 36.078125 39.3125 C 42.726562 40.480469 48.621094 45.074219 51.285156 51.15625 L 51.550781 51.773438 L 50.609375 52.613281 C 48.171875 54.800781 45.46875 56.488281 42.460938 57.679688 C 32.886719 61.453125 22.097656 59.515625 14.390625 52.613281 L 13.449219 51.773438 L 13.714844 51.15625 C 14.578125 49.183594 15.976562 47.101562 17.546875 45.46875 C 20.972656 41.871094 25.292969 39.714844 30.222656 39.105469 C 31.535156 38.953125 34.640625 39.054688 36.078125 39.3125 Z M 36.078125 39.3125 "/>
</g>
</svg>
