<?xml version="1.0" encoding="UTF-8"?>
<svg xmlns="http://www.w3.org/2000/svg" xmlns:xlink="http://www.w3.org/1999/xlink" width="55px" height="55px" viewBox="0 0 55 55" version="1.1">
<g id="surface1">
<path style=" stroke:none;fill-rule:nonzero;fill:rgb(0%,0%,0%);fill-opacity:1;" d="M 25.21875 1.925781 C 19.050781 2.519531 13.410156 5.214844 9.167969 9.585938 C 7.820312 10.972656 7.132812 11.824219 6.066406 13.421875 C 4.65625 15.535156 3.464844 18.140625 2.796875 20.597656 C 2.109375 23.097656 1.882812 24.796875 1.882812 27.5 C 1.882812 30.203125 2.109375 31.902344 2.796875 34.402344 C 3.464844 36.859375 4.65625 39.464844 6.066406 41.578125 C 7.125 43.164062 7.820312 44.019531 9.117188 45.367188 C 11.171875 47.484375 13.582031 49.242188 16.171875 50.507812 C 18.910156 51.847656 21.230469 52.535156 24.519531 53 C 25.617188 53.15625 29.40625 53.15625 30.480469 53 C 32.769531 52.660156 34.753906 52.1875 36.445312 51.5625 C 38.886719 50.664062 41.9375 48.875 43.953125 47.179688 C 45.015625 46.28125 46.628906 44.640625 47.484375 43.589844 C 49.023438 41.699219 50.71875 38.710938 51.5625 36.445312 C 52.1875 34.753906 52.699219 32.652344 53 30.480469 C 53.148438 29.394531 53.148438 25.605469 53 24.519531 C 52.535156 21.230469 51.847656 18.910156 50.507812 16.171875 C 49.242188 13.582031 47.484375 11.171875 45.367188 9.117188 C 44.019531 7.820312 43.164062 7.125 41.578125 6.066406 C 38.4375 3.96875 34.953125 2.667969 30.847656 2.054688 C 29.730469 1.890625 26.402344 1.8125 25.21875 1.925781 Z M 29.515625 4.675781 C 33.917969 5.0625 38.089844 6.707031 41.707031 9.515625 C 42.707031 10.292969 44.707031 12.292969 45.484375 13.292969 C 46.886719 15.105469 47.996094 17.050781 48.804688 19.070312 C 51.683594 26.34375 50.664062 34.503906 46.070312 40.921875 L 45.632812 41.542969 L 45.183594 40.742188 C 43.492188 37.730469 41.03125 35.109375 38.179688 33.320312 C 37.214844 32.714844 35.679688 31.964844 34.53125 31.535156 L 33.726562 31.230469 L 34.347656 30.816406 C 35.261719 30.210938 36.730469 28.707031 37.402344 27.679688 C 40.5625 22.886719 39.9375 16.730469 35.898438 12.683594 C 34.035156 10.828125 31.796875 9.6875 29.222656 9.316406 C 25.484375 8.757812 21.808594 9.984375 19.101562 12.683594 C 14.417969 17.367188 14.417969 24.808594 19.101562 29.480469 C 19.609375 29.992188 20.304688 30.589844 20.652344 30.816406 L 21.273438 31.230469 L 20.46875 31.535156 C 19.320312 31.964844 17.785156 32.714844 16.820312 33.320312 C 13.96875 35.109375 11.507812 37.730469 9.816406 40.742188 L 9.367188 41.542969 L 8.929688 40.921875 C 4.8125 35.171875 3.539062 27.929688 5.453125 21.253906 C 6.566406 17.398438 8.480469 14.152344 11.320312 11.320312 C 13.101562 9.535156 14.785156 8.289062 16.902344 7.195312 C 20.835938 5.152344 25.144531 4.296875 29.515625 4.675781 Z M 29.683594 12.183594 C 32.511719 12.914062 34.722656 14.796875 35.90625 17.480469 C 36.457031 18.71875 36.609375 19.5 36.609375 21.082031 C 36.609375 22.265625 36.574219 22.628906 36.410156 23.265625 C 35.5 26.640625 33.058594 29.085938 29.683594 29.992188 C 29.046875 30.160156 28.683594 30.191406 27.5 30.191406 C 26.316406 30.191406 25.953125 30.160156 25.316406 29.992188 C 21.941406 29.085938 19.5 26.640625 18.589844 23.265625 C 18.296875 22.167969 18.296875 20 18.589844 18.902344 C 19.242188 16.492188 20.753906 14.445312 22.777344 13.234375 C 23.734375 12.660156 25.207031 12.136719 26.355469 11.972656 C 27.042969 11.867188 28.9375 11.988281 29.683594 12.183594 Z M 30.527344 33.265625 C 36.152344 34.253906 41.140625 38.140625 43.394531 43.285156 L 43.621094 43.808594 L 42.824219 44.519531 C 40.761719 46.371094 38.472656 47.796875 35.929688 48.804688 C 27.828125 52 18.699219 50.359375 12.175781 44.519531 L 11.378906 43.808594 L 11.605469 43.285156 C 12.335938 41.617188 13.519531 39.855469 14.847656 38.472656 C 17.746094 35.429688 21.402344 33.605469 25.574219 33.089844 C 26.683594 32.960938 29.3125 33.046875 30.527344 33.265625 Z M 30.527344 33.265625 "/>
</g>
</svg>
